<svg width="1700" height="2000" viewBox="-280 -320 1700 2000" fill="none" xmlns="http://www.w3.org/2000/svg">
<path d="M307.655 297.141C350.741 295.095 392.964 298.702 434.837 321.897C443.705 331.105 449.495 339.682 457.253 342.932C497.286 359.704 501.387 378.493 470.956 411.02C444.305 439.506 417.284 467.619 391.22 496.703C368.552 521.998 349.359 551.429 324.418 573.677C281.64 611.838 257.06 657.92 263.699 716.963C267.754 753.028 272.516 792.985 313.684 810.655C324.722 818.952 335.226 825.209 345.73 831.466C402.07 865.091 471.148 856.038 516.937 808.042C558.331 764.652 597.926 719.249 640.429 677.156C661.469 656.319 687.27 640.934 714.781 623.524C723.86 629.779 729.075 635.593 733.616 643.404C685.748 663.306 655.063 703.541 621.718 739.816C608.515 754.179 598.162 771.512 584.408 787.065C554.346 783.407 542.225 797.478 541.985 827.153C537.852 829.461 535.417 830.979 533.355 832.94C461.984 900.843 358.033 896.824 292.367 823.58C233.91 758.379 237.269 645.468 300.922 575.712C355.896 515.467 412.07 456.463 467.709 396.906C476.033 387.996 490.261 376.967 472.356 367.168C449.959 354.911 424.941 348.086 399.366 338.05C390.333 336.654 382.989 336.126 374.679 333.067C367.596 328.605 361.561 325.375 355.351 324.935C230.562 316.09 132.581 367.597 67.425 480.405C4.72372 588.963 2.51704 703.952 63.6528 813.572C90.2369 861.24 130.084 901.269 167.109 941.419C241.567 1022.16 317.948 1100.91 394.152 1179.8C414.87 1201.25 442.832 1203.43 462.396 1184.03C501.861 1144.9 539.212 1103.37 578.154 1063.63C608.093 1033.08 639.132 1003.75 670.128 976.127C668.395 984.513 667.786 992.343 663.801 996.531C605.226 1058.1 546 1118.97 487.365 1180.48C455.986 1213.4 401.552 1216.78 374.735 1187.04C323.982 1130.76 272.873 1074.84 221.99 1018.69C173.925 965.644 123.711 914.574 78.4517 858.936C-0.158245 762.299 -8.11253 649.193 29.5781 533.748C46.1772 482.906 80.0396 438.458 106.064 391.106C106.064 391.106 106.094 391.253 107.398 391.232C108.702 391.212 111.446 391.151 113.437 390.946C118.874 389.37 122.892 388.793 125.679 386.511C175.458 345.767 230.05 317.947 293.686 312.478C298.697 312.047 303.015 302.468 307.655 297.141Z" fill="#412C21"/>
<path d="M736.668 297.221C804.712 292.724 870.997 297.166 933.938 330.323C1021.05 376.214 1077.3 449.694 1106.42 546.554C1116.74 580.903 1124.5 618.216 1123.61 653.899C1121.22 750.206 1090.34 836.231 1026.34 906.517C961.482 977.745 896.227 1048.56 831.023 1119.43C828.544 1122.13 824.781 1123.48 820.068 1123.86C824.469 1101.1 809.071 1108.58 800.388 1106.91C800.331 1106.85 800.218 1106.73 801.08 1104.96C861.379 1039.37 920.61 975.325 980.3 911.771C1087.78 797.34 1126.64 666.723 1063.3 512.367C1023.65 415.729 952.076 357.19 858.19 332.722C818.719 322.435 775.792 327.187 734.061 323.244C734.679 313.33 735.673 305.276 736.668 297.221Z" fill="#32312A"/>
<path d="M811.211 903.473C824.534 888.307 838.603 873.799 851.038 857.847C885.47 813.679 907.672 764.891 889.392 706.197C866.398 632.371 802.38 573.746 725.061 589.709C695.319 595.85 666.653 620.055 642.508 642.221C594.641 686.168 549.265 733.372 504.726 781.201C464.495 824.405 417.533 826.66 364.723 812.088C362.954 807.748 363.022 805.299 364.738 801.989C369.487 797.083 372.587 793.04 378.193 789.28C428.723 798.405 467.38 782.456 500.75 744.135C540.33 698.683 582.72 655.996 624.098 612.332C678.475 554.951 756.093 541.329 824.568 577.646C886.978 610.746 919.284 667.094 922.129 739.142C925.349 820.657 883.874 878.895 822.439 922.085C818.005 914.719 814.608 909.096 811.211 903.473Z" fill="#303029"/>
<path d="M104.067 391.219C80.0397 438.458 46.1773 482.907 29.5782 533.749C-8.11244 649.194 -0.158154 762.299 78.4518 858.936C123.711 914.574 173.925 965.644 221.99 1018.69C272.873 1074.84 323.982 1130.76 374.735 1187.04C401.552 1216.78 455.986 1213.4 487.365 1180.49C546 1118.98 605.226 1058.1 663.801 996.532C667.786 992.343 668.395 984.513 670.438 976.238C670.303 974.1 670.637 974.675 672.635 974.765C682.58 968.515 691.414 963.112 698.329 955.683C745.549 904.95 792.366 853.791 841.361 802.754C847.495 802.758 851.581 802.779 855.667 802.8C826.986 838.884 799.957 876.659 769.265 910.688C712.516 973.607 653.954 1034.69 595.494 1095.84C561.082 1131.82 526.052 1167.21 490.14 1201.49C448.868 1240.88 387.176 1226.73 352.148 1187.85C305.077 1135.61 256.089 1085.32 208.747 1033.35C156.714 976.219 102.117 921.145 55.2371 859.484C18.8581 811.636 0.976812 751.71 0.55561 688.683C0.279325 647.346 -2.24593 604.577 6.36267 564.945C20.9633 497.726 51.9062 437.775 104.067 391.219Z" fill="#3B393A"/>
<path d="M313.151 808.616C272.516 792.985 267.754 753.029 263.699 716.964C257.06 657.921 281.64 611.839 324.418 573.678C349.359 551.43 368.552 521.999 391.22 496.703C417.284 467.619 444.305 439.507 470.956 411.021C501.387 378.494 497.286 359.704 457.253 342.933C449.495 339.683 443.705 331.105 436.66 323.007C473.834 326.278 502.668 346.43 525.719 378.55C506.47 402.137 488.151 424.585 470.016 449.058C470.202 451.082 470.524 451.262 468.432 451.09C460.725 453.836 453.879 455.444 449.703 459.894C428.952 482.001 408.702 504.656 388.658 527.499C358.544 561.816 327.248 595.131 299.207 631.292C266.007 674.105 276.87 770.995 313.521 798.537C313.277 802.887 313.214 805.752 313.151 808.616Z" fill="#312F2D"/>
<path d="M790.649 1155.86C763.339 1182.66 736.028 1209.46 705.862 1237.66C701.607 1240.01 700.536 1241.27 699.792 1242.85C688.092 1245.07 676.392 1247.28 662.082 1247.49C654.16 1246.68 648.848 1247.88 643.537 1249.08C627.501 1242.53 611.464 1235.99 594.24 1225.65C591.675 1211.07 590.299 1200.27 590.691 1190.06C646.499 1233.4 688.537 1229.17 728.846 1180.39C750.664 1153.99 776.303 1131.17 800.218 1106.73C800.218 1106.73 800.331 1106.85 800.307 1109.19C797.071 1126.3 793.86 1141.08 790.649 1155.86Z" fill="#32312A"/>
<path d="M487.653 245.432C505.679 222.778 528.193 224.486 545.043 237.259C554.49 244.42 558.654 266.796 557.019 281.269C555.233 297.085 543.478 312.716 524.07 307.375C506.567 302.559 484.21 301.175 486.646 271.504C487.288 263.676 486.809 255.743 487.653 245.432Z" fill="#F8EAC6"/>
<path d="M659.162 170.679C670.465 177.193 685.871 182.826 686.77 190.41C688.544 205.374 686.102 224.468 678.018 235.962C672.486 243.827 654.092 244.969 642.1 243.414C616.079 240.039 612.034 219.303 615.51 195.797C619.386 169.589 637.374 168.651 659.162 170.679Z" fill="#F8EAC6"/>
<path d="M809.573 904.454C814.608 909.096 818.004 914.719 821.894 923.887C785.334 965.762 748.28 1004.09 710.474 1040.6C706.101 1033.49 702.482 1028.21 698.862 1022.92C735.22 983.759 771.578 944.597 809.573 904.454Z" fill="#32312B"/>
<path d="M856.446 801.014C851.581 802.779 847.495 802.758 841.727 800.285C844.201 769.262 854.856 740.273 834.676 711.607C833.736 707.713 833.376 705.441 833.223 700.787C826.96 686.029 823.263 669.14 813.409 662.271C795.989 650.128 774.82 644.085 755.741 633.84C757.898 629.393 759.534 626.596 761.17 623.798C823.384 615.856 880.702 706.056 863.551 768.335C860.773 778.423 859.3 788.92 856.446 801.014Z" fill="#342C26"/>
<path d="M588.923 1189.46C590.299 1200.27 591.675 1211.07 593.03 1224.05C538.838 1176.11 544.9 1185.99 588.017 1138.69C615.9 1108.1 644.81 1078.57 676.595 1048.66C683.062 1054.46 686.194 1060.17 689.152 1065.83C688.979 1065.78 688.7 1065.54 686.742 1065.62C671.146 1081.52 657.508 1097.35 643.704 1112.92C643.537 1112.67 643.923 1113.14 641.779 1113.08C635.509 1119.36 631.382 1125.71 626.955 1133.65C624.704 1137.64 622.753 1140.03 618.824 1142.49C607.57 1152.9 598.295 1163.24 588.75 1175.57C588.628 1181.53 588.775 1185.49 588.923 1189.46Z" fill="#32312B"/>
<path d="M563.827 69.1968C543.602 72.5478 527.278 66.6958 527.144 46.8017C527.04 31.309 534.529 12.8808 544.469 1.56119C548.627 -3.17319 570.331 3.66572 579.709 11.3016C597.72 25.9678 589.626 56.218 563.827 69.1968Z" fill="#F8EAC6"/>
<path d="M305.333 296.89C303.015 302.469 298.697 312.048 293.687 312.479C230.05 317.948 175.459 345.767 125.68 386.512C122.892 388.794 118.874 389.371 113.508 389.423C111.596 387.089 111.605 386.072 111.614 385.054C137.867 346.103 177.998 329.357 217.69 314.459C244.737 304.308 274.476 302.292 305.333 296.89Z" fill="#312F2D"/>
<path d="M585.767 368.68C619.979 350.124 654.191 331.567 690.927 315.365C695.187 323.175 696.924 328.629 696.807 335.687C662.679 355.38 630.406 373.469 596.732 390.326C592.143 382.289 588.955 375.485 585.767 368.68Z" fill="#342C26"/>
<path d="M470.312 451.245C476.184 451.278 481.947 451.148 490.634 452.835C496.957 461.325 500.354 467.998 503.685 476.942C503.69 503.588 491.958 513.709 468.003 510.084C459.42 505.715 452.512 502.354 446.436 496.866C455.019 480.247 462.772 465.754 470.524 451.262C470.524 451.262 470.202 451.082 470.312 451.245Z" fill="#EDE1BC"/>
<path d="M583.565 368.386C588.955 375.485 592.143 382.289 596.676 392.565C595.195 419.281 585.321 432.172 560.156 422.885C553.028 413.423 547.095 405.433 541.161 397.443C545.583 373.708 559.041 364.013 583.565 368.386Z" fill="#EDE1BC"/>
<path d="M539.328 398.131C547.095 405.433 553.028 413.422 559.058 424.8C540.687 443.682 522.219 459.176 503.751 474.67C500.354 467.998 496.957 461.325 492.806 452.865C507.2 433.658 522.348 416.239 539.328 398.131Z" fill="#3F3E31"/>
<path d="M458.821 152.662C450.476 164.312 442.133 173.477 433.79 182.642C425.288 173.329 409.578 163.504 410.121 154.832C410.789 144.153 423.695 128.601 433.748 126.051C442.616 123.802 462.502 127.966 458.821 152.662Z" fill="#F8EAC6"/>
<path d="M313.684 810.656C313.214 805.752 313.277 802.887 315.251 797.868C323.173 791.783 329.184 787.853 337.188 784.286C347.15 790.717 355.12 796.783 363.09 802.85C363.022 805.299 362.954 807.748 362.697 812.027C357.08 818.376 351.652 822.894 345.977 829.439C335.226 825.209 324.722 818.952 313.684 810.656Z" fill="#E9D9AF"/>
<path d="M698.661 334.084C696.924 328.629 695.187 323.174 693.038 315.578C705.818 307.938 719.011 302.439 734.436 297.081C735.673 305.276 734.679 313.33 733.356 325.277C723.877 349.091 711.759 345.476 698.661 334.084Z" fill="#EDE1BC"/>
<path d="M761.063 621.604C759.534 626.596 757.898 629.393 754.187 634.094C750.664 637.583 749.216 639.167 746.071 640.783C741.012 641.011 737.651 641.209 734.291 641.407C729.076 635.593 723.86 629.779 716.717 623.953C742.278 591.085 742.278 591.085 761.063 621.604Z" fill="#E9D9AF"/>
<path d="M792.459 1155.4C793.86 1141.08 797.071 1126.3 800.363 1109.25C809.071 1108.58 824.469 1101.1 818.132 1124.32C809.919 1135.9 802.094 1145.42 792.459 1155.4Z" fill="#32312B"/>
<path d="M689.325 1065.88C686.194 1060.17 683.062 1054.46 678.239 1047.74C682.96 1039.4 689.374 1032.06 697.325 1023.82C702.482 1028.21 706.101 1033.49 710.084 1042.47C703.407 1052.73 696.366 1059.3 689.325 1065.88Z" fill="#32312A"/>
<path d="M645.614 1249.33C648.848 1247.88 654.16 1246.68 659.838 1247.3C656.033 1249.27 651.862 1249.43 645.614 1249.33Z" fill="#32312B"/>
<path d="M110.308 385.656C111.605 386.072 111.596 387.089 111.516 389.629C111.446 391.152 108.702 391.213 107.328 391.224C106.971 389.576 107.986 387.917 110.308 385.656Z" fill="#3B393A"/>
<path d="M700.998 1242.49C700.536 1241.27 701.608 1240.01 704.106 1238.49C704.642 1239.69 703.641 1241.09 700.998 1242.49Z" fill="#32312B"/>
<path d="M733.616 643.404C737.651 641.209 741.012 641.011 747.486 642.458C783.206 655.664 813.43 670.997 833.015 703.169C833.376 705.441 833.736 707.713 834.637 713.942C844.846 752.324 836.299 783.565 814.928 808.729C783.368 845.89 748.369 879.711 715.921 916.054C699.592 934.344 685.655 955.057 670.637 974.674C670.637 974.674 670.303 974.099 669.993 973.988C639.132 1003.75 608.093 1033.08 578.154 1063.63C539.212 1103.37 501.861 1144.9 462.396 1184.03C442.832 1203.43 414.87 1201.25 394.152 1179.8C317.949 1100.91 241.567 1022.16 167.109 941.419C130.084 901.269 90.2369 861.239 63.6528 813.572C2.51708 703.952 4.72376 588.963 67.4251 480.405C132.581 367.597 230.562 316.09 355.351 324.935C361.561 325.375 367.596 328.605 374.065 334.84C365.78 351.902 358.441 366.609 376.082 375.378C382.661 378.648 397.077 372.591 402.966 365.866C406.876 361.4 401.999 348.204 401.055 338.917C424.941 348.086 449.959 354.91 472.356 367.168C490.261 376.967 476.033 387.996 467.709 396.906C412.07 456.463 355.896 515.467 300.922 575.712C237.269 645.468 233.91 758.378 292.367 823.58C358.033 896.824 461.984 900.843 533.355 832.94C535.417 830.979 537.852 829.461 543.575 828.019C555.468 841.784 567.227 853.217 580.984 841.144C589.036 834.077 591.62 818.47 593.926 806.125C594.948 800.655 589.191 793.748 586.512 787.493C598.162 771.512 608.515 754.179 621.718 739.816C655.063 703.54 685.748 663.306 733.616 643.404ZM536.804 1041.61C556.906 1035.12 560.787 1018.3 552.362 1002.2C548.257 994.363 531.673 988.511 522.654 990.702C515.248 992.502 506.459 1007.17 505.756 1016.75C504.47 1034.31 516.459 1042.68 536.804 1041.61Z" fill="#B5592E"/>
<path d="M584.408 787.065C589.191 793.748 594.948 800.655 593.926 806.126C591.62 818.471 589.036 834.078 580.984 841.144C567.227 853.217 555.468 841.784 545.446 827.435C542.225 797.478 554.345 783.407 584.408 787.065Z" fill="#E9D9AF"/>
<path d="M399.366 338.05C401.999 348.205 406.876 361.401 402.966 365.867C397.077 372.592 382.661 378.649 376.082 375.378C358.441 366.61 365.78 351.903 375.031 337.37C382.989 336.126 390.333 336.655 399.366 338.05Z" fill="#F8D8AA"/>
<path d="M696.413 1053.2C703.627 1046.67 710.668 1040.1 718.098 1031.66C755.541 991.466 792.595 953.135 830.193 913.003C891.135 866.268 932.61 808.03 929.391 726.515C926.545 654.467 894.239 598.119 831.829 565.019C763.355 528.702 685.736 542.324 631.359 599.705C589.982 643.369 547.592 686.055 508.012 731.508C474.642 769.829 435.984 785.778 384.796 774.865C326.364 720.538 327.106 654.022 385.257 611.622C401.627 624.767 417.078 628.874 431.789 614.025C448.615 597.04 442.99 578.813 432.296 559.039C447.554 537.409 462.247 517.937 476.94 498.465C499.219 501.082 510.951 490.961 510.946 464.315C529.481 446.55 547.949 431.056 567.514 413.646C592.582 419.545 602.456 406.654 605.338 381.17C637.667 360.842 669.94 342.753 704.068 323.06C719.021 332.85 731.139 336.464 740.994 314.509C783.054 314.56 825.98 309.808 865.451 320.095C959.337 344.564 1030.91 403.102 1070.57 499.74C1133.91 654.096 1095.04 784.713 987.562 899.145C927.872 962.698 868.641 1026.74 808.341 1092.33C783.564 1118.54 757.926 1141.36 736.107 1167.77C695.798 1216.55 653.76 1220.77 597.952 1177.43C596.036 1172.87 595.889 1168.9 597.695 1162.27C609.12 1149.67 618.592 1139.73 628.064 1129.79C630.014 1127.4 631.965 1125.01 635.98 1120.35C642.424 1112.23 646.804 1106.37 651.184 1100.52C651.184 1100.52 650.798 1100.04 652.84 1099.94C668.575 1084.2 682.268 1068.56 695.961 1052.91C695.961 1052.91 696.24 1053.15 696.413 1053.2ZM670.717 485.069C682.738 458.559 677.943 435.704 657.998 433.378C647.858 432.196 631.903 436.666 627.435 444.392C622.128 453.569 622.355 471.245 627.313 481.216C636.044 498.774 652.269 498.46 670.717 485.069ZM551.588 635.023C546.708 624.737 544.036 610.029 536.228 605.605C530.288 602.239 514.621 609.339 509.344 616.707C505.598 621.937 511.25 643.488 513.926 643.752C525.747 644.919 538.008 641.014 551.588 635.023Z" fill="#646A3B"/>
<path d="M376.179 623.425C319.845 666.648 319.103 733.164 375.03 787.208C372.587 793.039 369.487 797.083 364.738 801.988C355.12 796.783 347.15 790.716 335.965 782.709C299.82 753.161 306.83 715.299 310.26 678.788C314.019 638.778 340.517 613.358 366.79 586.965C371.389 599.366 373.784 611.396 376.179 623.425Z" fill="#35342B"/>
<path d="M672.635 974.765C685.655 955.057 699.592 934.344 715.921 916.055C748.369 879.711 783.368 845.89 814.928 808.729C836.299 783.565 844.846 752.324 835.215 715.563C854.856 740.273 844.201 769.263 839.679 800.302C792.366 853.791 745.549 904.949 698.329 955.682C691.414 963.112 682.58 968.515 672.635 974.765Z" fill="#412C21"/>
<path d="M833.223 700.787C813.43 670.998 783.206 655.665 749.185 642.428C749.217 639.168 750.664 637.583 753.666 635.744C774.82 644.086 795.989 650.129 813.409 662.272C823.264 669.14 826.961 686.029 833.223 700.787Z" fill="#412C21"/>
<path d="M686.742 1065.62C675.007 1081.18 661.314 1096.82 645.746 1112.82C657.508 1097.35 671.146 1081.52 686.742 1065.62Z" fill="#32312A"/>
<path d="M618.824 1142.49C611.331 1152.36 601.859 1162.3 590.703 1172.91C598.295 1163.24 607.57 1152.9 618.824 1142.49Z" fill="#32312A"/>
<path d="M641.779 1113.08C639.543 1119 635.163 1124.85 629.019 1131.38C631.382 1125.71 635.509 1119.36 641.779 1113.08Z" fill="#32312A"/>
<path d="M391.214 566.997C391.214 566.997 391.702 567.026 391.47 565.109C391.137 561.734 391.037 560.277 390.936 558.82C408.074 539.462 425.212 520.104 443.977 499.869C452.512 502.354 459.42 505.715 468.003 510.084C454.986 530.563 440.293 550.035 422.685 570.955C410.252 570.601 400.733 568.799 391.214 566.997Z" fill="#3F3E31"/>
<path d="M534.896 1041.98C516.459 1042.68 504.47 1034.31 505.756 1016.75C506.459 1007.17 515.248 992.502 522.654 990.703C531.673 988.511 548.257 994.363 552.362 1002.2C560.787 1018.3 556.906 1035.12 534.896 1041.98Z" fill="#F8D8AA"/>
<path d="M389.741 565.098C400.733 568.799 410.252 570.601 422.12 573.113C435.729 591.44 441.354 609.667 424.528 626.651C409.817 641.501 394.366 637.394 377.996 624.249C373.784 611.396 371.389 599.366 366.79 586.965C372.48 578.796 380.374 570.997 389.741 565.098Z" fill="#E4DCB2"/>
<path d="M661.993 499.315C645.008 511.086 628.783 511.4 620.052 493.843C615.094 483.871 614.867 466.196 620.174 457.019C624.642 449.292 640.597 444.822 650.737 446.005C670.682 448.331 675.477 471.185 661.993 499.315Z" fill="#EDE1BC"/>
<path d="M543.588 649.611C530.747 653.641 518.485 657.546 506.665 656.379C503.989 656.115 498.337 634.564 502.083 629.334C507.36 621.966 523.027 614.867 528.967 618.232C536.775 622.656 539.447 637.364 543.588 649.611Z" fill="#E4DCB2"/>
<path d="M389.092 559.653C391.036 560.278 391.137 561.735 391.472 565.369C390.22 565.193 388.734 562.84 389.092 559.653Z" fill="#E4DCB2"/>
</svg>
